<?xml version="1.0" encoding="UTF-8"?>
<svg version="1.1" xmlns="http://www.w3.org/2000/svg" width="64" height="70">
<path d="M0 0 C8.04071716 5.46768767 14.35713546 11.78672485 16.953125 21.328125 C17.80587445 30.8967671 17.99387267 40.28479768 11.5390625 48.0234375 C11.07757813 48.53648438 10.61609375 49.04953125 10.140625 49.578125 C7.64091392 52.10213772 7.64091392 52.10213772 8.078125 55.078125 C8.90826056 57.31558225 8.90826056 57.31558225 9.953125 59.328125 C9.99334891 61.6611116 9.99632747 63.99519166 9.953125 66.328125 C6.24936953 65.8276175 4.32233601 65.26143387 1.953125 62.328125 C0.963125 60.843125 0.963125 60.843125 -0.046875 59.328125 C-1.036875 59.65296875 -2.026875 59.9778125 -3.046875 60.3125 C-7.04025689 61.44944877 -10.91361519 61.62563373 -15.046875 61.578125 C-15.71976563 61.58585937 -16.39265625 61.59359375 -17.0859375 61.6015625 C-21.79635118 61.58337557 -25.62171589 60.78013033 -30.046875 59.328125 C-30.48 60.111875 -30.913125 60.895625 -31.359375 61.703125 C-33.046875 64.328125 -33.046875 64.328125 -36.046875 66.328125 C-37.366875 66.328125 -38.686875 66.328125 -40.046875 66.328125 C-40.21614263 61.92716664 -40.05007652 59.20098127 -38.046875 55.328125 C-38.62393013 51.14010371 -40.96121425 48.69499578 -43.57421875 45.5234375 C-48.38099397 38.3578999 -47.71223303 29.57527888 -47.046875 21.328125 C-46.1746718 17.95246287 -44.90028284 15.2667519 -43.046875 12.328125 C-42.69625 11.70679688 -42.345625 11.08546875 -41.984375 10.4453125 C-33.73198708 -2.79289313 -13.6222471 -7.38304995 0 0 Z " fill="#4ADE8C" transform="translate(47.046875,2.671875)"/>
<path d="M0 0 C1.98 0 3.96 0 6 0 C5.78366428 4.77020273 5.50525872 8.64382866 2.8125 12.6875 C0.66969553 15.81177086 0.66969553 15.81177086 1.4375 18.9375 C2.71412541 21.4396858 4.06685785 23.61591284 5.625 25.9375 C8.20808855 29.86894562 8.48274645 32.36563404 8 37 C4.29624453 36.4994925 2.36921101 35.93330887 0 33 C-0.66 32.01 -1.32 31.02 -2 30 C-2.99 30.32484375 -3.98 30.6496875 -5 30.984375 C-8.99338189 32.12132377 -12.86674019 32.29750873 -17 32.25 C-17.67289063 32.25773437 -18.34578125 32.26546875 -19.0390625 32.2734375 C-23.74947618 32.25525057 -27.57484089 31.45200533 -32 30 C-32.433125 30.78375 -32.86625 31.5675 -33.3125 32.375 C-35 35 -35 35 -38 37 C-39.32 37 -40.64 37 -42 37 C-42.31563182 31.73946963 -41.66590937 28.55426184 -39 24 C-38.34 24 -37.68 24 -37 24 C-36.64808594 22.75863281 -36.64808594 22.75863281 -36.2890625 21.4921875 C-34.76252297 17.35665314 -32.69028827 13.85840234 -30.375 10.125 C-29.74464844 9.09246094 -29.74464844 9.09246094 -29.1015625 8.0390625 C-28.07307528 6.35608342 -27.037279 4.67757468 -26 3 C-22.109375 4.78125 -22.109375 4.78125 -21.125 6.75 C-20.9544277 9.82030146 -21.90211053 12.15840374 -23 15 C-20.75487738 16.12256131 -19.48543351 16.13413762 -17 16.125 C-16.29875 16.12757812 -15.5975 16.13015625 -14.875 16.1328125 C-12.90846225 16.11377236 -12.90846225 16.11377236 -11 15 C-11.4640625 13.8553125 -11.4640625 13.8553125 -11.9375 12.6875 C-12.67893593 10.81210323 -13.36228217 8.91315348 -14 7 C-12.68 5.68 -11.36 4.36 -10 3 C-9.01 3.33 -8.02 3.66 -7 4 C-5.8125 7.0625 -5.8125 7.0625 -5 10 C-4.34 10 -3.68 10 -3 10 C-2.01 6.7 -1.02 3.4 0 0 Z " fill="#D4EDF9" transform="translate(49,32)"/>
<path d="M0 0 C1.98 0 3.96 0 6 0 C6 1.65 6 3.3 6 5 C6.969375 4.979375 7.93875 4.95875 8.9375 4.9375 C12 5 12 5 13 6 C13.07313567 8.53049402 13.09247527 11.03304837 13.0625 13.5625 C13.05798828 14.27341797 13.05347656 14.98433594 13.04882812 15.71679688 C13.03700864 17.47790013 13.01907263 19.23896036 13 21 C12.01 21.33 11.02 21.66 10 22 C8.83333333 23.91666667 8.83333333 23.91666667 8 26 C7.67 26.66 7.34 27.32 7 28 C7.495 28.804375 7.99 29.60875 8.5 30.4375 C8.995 31.283125 9.49 32.12875 10 33 C9 36 9 36 7 37 C-0.46666667 37.35555556 -0.46666667 37.35555556 -4 35 C-3.83242188 34.39671875 -3.66484375 33.7934375 -3.4921875 33.171875 C-3.28851562 32.37265625 -3.08484375 31.5734375 -2.875 30.75 C-2.66617187 29.96109375 -2.45734375 29.1721875 -2.2421875 28.359375 C-1.95122401 25.52482741 -2.37084136 24.31565945 -4 22 C-4.99 21.67 -5.98 21.34 -7 21 C-7.02685095 18.52076199 -7.04676547 16.0418116 -7.0625 13.5625 C-7.07506836 12.50192383 -7.07506836 12.50192383 -7.08789062 11.41992188 C-7.09653588 9.61306441 -7.05220011 7.80612397 -7 6 C-6 5 -6 5 -2.9375 4.9375 C-1.4834375 4.9684375 -1.4834375 4.9684375 0 5 C0 3.35 0 1.7 0 0 Z " fill="#1A4150" transform="translate(29,12)"/>
<path d="M0 0 C3.60401481 -0.08701039 7.20776012 -0.14039388 10.8125 -0.1875 C12.34874023 -0.22520508 12.34874023 -0.22520508 13.91601562 -0.26367188 C15.39038086 -0.27817383 15.39038086 -0.27817383 16.89453125 -0.29296875 C18.25348511 -0.31653442 18.25348511 -0.31653442 19.63989258 -0.34057617 C22.42444206 0.06124927 23.27599535 0.83688562 25 3 C24.55615967 3.40774658 24.11231934 3.81549316 23.6550293 4.2355957 C21.88023391 6.127681 20.76145556 7.95629567 19.51953125 10.23046875 C19.07802734 11.03291016 18.63652344 11.83535156 18.18164062 12.66210938 C17.72982422 13.49548828 17.27800781 14.32886719 16.8125 15.1875 C16.34908203 16.03248047 15.88566406 16.87746094 15.40820312 17.74804688 C14.26749219 19.82955034 13.13162891 21.91354928 12 24 C6.2885996 21.31694954 3.22390331 16.6703345 0.625 11 C-0.15727016 7.24510325 -0.03929983 3.83566325 0 0 Z " fill="#52EE91" transform="translate(0,32)"/>
<path d="M0 0 C0.69222656 0.16242187 1.38445313 0.32484375 2.09765625 0.4921875 C5.26579243 1.04650473 8.22226229 1.13257418 11.4375 1.125 C12.52933594 1.12757812 13.62117188 1.13015625 14.74609375 1.1328125 C17.91192524 1.00359489 20.89035545 0.59097317 24 0 C27 5.75 27 5.75 27 8 C21.89081206 10.51467844 17.73333352 11.47385058 12 11.375 C10.99066406 11.39240234 10.99066406 11.39240234 9.9609375 11.41015625 C4.88967146 11.38078598 1.45761959 10.19398464 -3 8 C-1.125 2.25 -1.125 2.25 0 0 Z " fill="#4BD486" transform="translate(20,53)"/>
<path d="M0 0 C4.88049925 3.9419417 9.0580583 8.11950075 13 13 C11.02 13 9.04 13 7 13 C6.87625 13.9075 6.7525 14.815 6.625 15.75 C6.07890323 18.58970323 5.42736197 20.52590591 4 23 C3.34 23 2.68 23 2 23 C1.54625 22.05125 1.0925 21.1025 0.625 20.125 C-0.80238254 16.99686321 -0.80238254 16.99686321 -3 15 C-2.34 14.67 -1.68 14.34 -1 14 C-0.52998967 10.72444392 -0.52998967 10.72444392 -0.375 6.9375 C-0.30023438 5.64714844 -0.22546875 4.35679688 -0.1484375 3.02734375 C-0.09945312 2.02832031 -0.05046875 1.02929688 0 0 Z " fill="#42C57E" transform="translate(42,19)"/>
<path d="M0 0 C10.03012048 13.10240964 10.03012048 13.10240964 9 21 C5.21626375 20.48868429 3.43884411 19.93656739 1 17 C-0.11840771 14.96727358 -1.17695993 12.90094949 -2.1875 10.8125 C-2.71730469 9.72582031 -3.24710938 8.63914062 -3.79296875 7.51953125 C-4.19128906 6.68808594 -4.58960938 5.85664062 -5 5 C-3.35 3.35 -1.7 1.7 0 0 Z " fill="#CBDEE6" transform="translate(48,48)"/>
<path d="M0 0 C0.66 0.66 1.32 1.32 2 2 C2.969375 1.938125 3.93875 1.87625 4.9375 1.8125 C5.948125 1.874375 6.95875 1.93625 8 2 C9.9375 4.3125 9.9375 4.3125 11 7 C10 10 10 10 8 11 C0.53333333 11.35555556 0.53333333 11.35555556 -3 9 C-2.01 6.03 -1.02 3.06 0 0 Z " fill="#53D38B" transform="translate(28,38)"/>
<path d="M0 0 C0.99 0.33 1.98 0.66 3 1 C3.70381157 2.98723268 4.3711811 4.98777953 5 7 C5.66 7.33 6.32 7.66 7 8 C3.25 11 3.25 11 1 11 C1 11.66 1 12.32 1 13 C-2.41287736 11.29356132 -2.84441325 7.46676025 -4 4 C-2.68 2.68 -1.36 1.36 0 0 Z " fill="#CAE1E6" transform="translate(39,35)"/>
<path d="M0 0 C-0.50712033 3.71888239 -1.11608215 6.73454239 -3 10 C-3.66 10 -4.32 10 -5 10 C-5.45375 9.05125 -5.9075 8.1025 -6.375 7.125 C-7.80238254 3.99686321 -7.80238254 3.99686321 -10 2 C-6.3558226 -0.4294516 -4.28758728 -0.16179575 0 0 Z " fill="#4FD88A" transform="translate(49,32)"/>
<path d="M0 0 C2.625 0.375 2.625 0.375 5 1 C5.625 3.375 5.625 3.375 6 6 C5.34 6.66 4.68 7.32 4 8 C1.375 7.625 1.375 7.625 -1 7 C-1.625 4.625 -1.625 4.625 -2 2 C-1.34 1.34 -0.68 0.68 0 0 Z " fill="#44BC7D" transform="translate(30,23)"/>
<path d="M0 0 C0.66 0.33 1.32 0.66 2 1 C-0.97 3.97 -3.94 6.94 -7 10 C-7 7 -7 7 -4.625 4.4375 C-3.75875 3.633125 -2.8925 2.82875 -2 2 C-1.34 1.34 -0.68 0.68 0 0 Z " fill="#6BE8A2" transform="translate(13,5)"/>
</svg>
