<?xml version="1.0" encoding="UTF-8"?>
<svg version="1.1" xmlns="http://www.w3.org/2000/svg" width="204" height="192">
<path d="M0 0 C67.32 0 134.64 0 204 0 C204 63.36 204 126.72 204 192 C136.68 192 69.36 192 0 192 C0 128.64 0 65.28 0 0 Z " fill="#FDFCFC" transform="translate(0,0)"/>
<path d="M0 0 C1.9375 0.6875 1.9375 0.6875 3.9375 1.6875 C6.81660588 1.92024209 9.67896495 2.10722757 12.5625 2.25 C13.36429688 2.29318359 14.16609375 2.33636719 14.9921875 2.38085938 C16.9737511 2.48701457 18.95560271 2.58776855 20.9375 2.6875 C21.17163462 9.03514972 20.95940506 14.64529534 18.9375 20.6875 C18.60492188 21.83605469 18.60492188 21.83605469 18.265625 23.0078125 C16.54304966 27.93177786 14.73291606 30.25411505 10.0625 32.6875 C6.39684165 34.26546831 2.94564114 35.3710678 -1.0625 35.6875 C-1.3925 37.3375 -1.7225 38.9875 -2.0625 40.6875 C-0.7425 40.6875 0.5775 40.6875 1.9375 40.6875 C2.2675 39.0375 2.5975 37.3875 2.9375 35.6875 C3.06125 36.326875 3.185 36.96625 3.3125 37.625 C3.51875 38.305625 3.725 38.98625 3.9375 39.6875 C4.5975 40.0175 5.2575 40.3475 5.9375 40.6875 C3.9575 42.0075 1.9775 43.3275 -0.0625 44.6875 C-2.94687779 43.39450306 -4.93469421 42.02808637 -7.0625 39.6875 C-6.4025 39.6875 -5.7425 39.6875 -5.0625 39.6875 C-5.0625 38.3675 -5.0625 37.0475 -5.0625 35.6875 C-7.56754324 33.75503808 -9.42170763 32.77134199 -12.5703125 32.359375 C-15.0625 31.6875 -15.0625 31.6875 -16.57421875 29.90234375 C-21.40452144 20.5466412 -22.37864421 13.2256405 -22.0625 2.6875 C-20.87011719 2.63851562 -19.67773438 2.58953125 -18.44921875 2.5390625 C-16.88278932 2.46402396 -15.31638421 2.3884766 -13.75 2.3125 C-12.96431641 2.2815625 -12.17863281 2.250625 -11.36914062 2.21875 C-10.61181641 2.18007812 -9.85449219 2.14140625 -9.07421875 2.1015625 C-8.37772217 2.0701416 -7.68122559 2.0387207 -6.96362305 2.00634766 C-4.08537083 1.52362037 -3.00101193 -0.45469878 0 0 Z " fill="#A21817" transform="translate(50.0625,73.3125)"/>
<path d="M0 0 C1.08667969 0.01804687 2.17335938 0.03609375 3.29296875 0.0546875 C4.54013672 0.08949219 4.54013672 0.08949219 5.8125 0.125 C5.8125 2.105 5.8125 4.085 5.8125 6.125 C4.925625 5.485625 4.03875 4.84625 3.125 4.1875 C0.12038572 2.31670243 -1.7385371 1.53076034 -5.1875 1.125 C-5.07484703 3.56863008 -5.07484703 3.56863008 -4.1875 6.125 C-1.96624162 7.52535495 -1.96624162 7.52535495 0.75 8.3125 C5.66032609 9.97282609 5.66032609 9.97282609 7.8125 12.125 C8.30254554 17.41749181 8.11995448 18.7150607 4.8125 23.125 C17.0225 23.125 29.2325 23.125 41.8125 23.125 C39.8325 21.475 37.8525 19.825 35.8125 18.125 C33.50044428 14.8671033 33.34000643 12.06244642 33.8125 8.125 C35.85243908 4.4671782 37.31669262 2.45553826 40.8125 0.125 C43.41495498 -0.01721065 45.90367684 -0.06302932 48.5 0 C49.20189453 0.00902344 49.90378906 0.01804687 50.62695312 0.02734375 C52.35561525 0.05086296 54.08410145 0.08673287 55.8125 0.125 C55.8125 2.435 55.8125 4.745 55.8125 7.125 C52.8125 6.125 52.8125 6.125 50.8125 3.125 C48.83502878 2.76202064 48.83502878 2.76202064 46.6875 2.9375 C45.40875 2.999375 44.13 3.06125 42.8125 3.125 C41.38652389 5.97695222 41.6804748 8.44961175 41.6875 11.625 C41.68492187 12.7903125 41.68234375 13.955625 41.6796875 15.15625 C41.6076569 18.05430786 41.6076569 18.05430786 42.8125 20.125 C44.7925 20.125 46.7725 20.125 48.8125 20.125 C49.4725 17.815 50.1325 15.505 50.8125 13.125 C49.8225 13.125 48.8325 13.125 47.8125 13.125 C47.8125 12.465 47.8125 11.805 47.8125 11.125 C51.4425 11.125 55.0725 11.125 58.8125 11.125 C58.8125 11.785 58.8125 12.445 58.8125 13.125 C58.1525 13.125 57.4925 13.125 56.8125 13.125 C56.8125 16.425 56.8125 19.725 56.8125 23.125 C70.6725 23.62 70.6725 23.62 84.8125 24.125 C84.8125 24.785 84.8125 25.445 84.8125 26.125 C53.4625 26.125 22.1125 26.125 -10.1875 26.125 C-10.1875 22.165 -10.1875 18.205 -10.1875 14.125 C-9.5275 14.125 -8.8675 14.125 -8.1875 14.125 C-7.445 15.115 -6.7025 16.105 -5.9375 17.125 C-4.68520648 18.80669723 -4.68520648 18.80669723 -3.1875 20.125 C0.02410696 20.62765692 0.02410696 20.62765692 2.8125 20.125 C3.1425 18.475 3.4725 16.825 3.8125 15.125 C3.05324219 14.95484375 2.29398438 14.7846875 1.51171875 14.609375 C0.51785156 14.36703125 -0.47601563 14.1246875 -1.5 13.875 C-2.97919922 13.52695313 -2.97919922 13.52695313 -4.48828125 13.171875 C-7.5757094 11.97443543 -8.61608517 11.00862722 -10.1875 8.125 C-10.0625 5 -10.0625 5 -9.1875 2.125 C-5.66070901 -0.22619399 -4.15870515 -0.08943452 0 0 Z " fill="#F4E3E4" transform="translate(94.1875,72.875)"/>
<path d="M0 0 C1.70807442 0.68281967 3.41425907 1.38202262 5.05517578 2.21337891 C8.57993429 3.63903443 12.19241859 3.31265696 15.9375 3.1875 C17.10635742 3.16719727 17.10635742 3.16719727 18.29882812 3.14648438 C20.19952404 3.11150224 22.09985834 3.05770959 24 3 C24.49097136 15.61978234 22.37655616 24.70104442 17 36 C20.09720845 36.87840996 21.90645403 36.99435406 25 36 C25 38.64 25 41.28 25 44 C18.21808511 43.06914894 18.21808511 43.06914894 15.4375 42.1875 C11.75528123 41.9042524 9.88956854 43.88098307 7 46 C6.34 46 5.68 46 5 46 C5 46.66 5 47.32 5 48 C2 50 2 50 0.0234375 49.8125 C-2.30066901 48.87926804 -3.58877701 47.74429287 -5.375 46 C-8.50282393 43.21375856 -10.67735601 42 -15 42 C-17.06669397 42.90833725 -17.06669397 42.90833725 -19 44 C-21.75 44.125 -21.75 44.125 -24 44 C-24 41.36 -24 38.72 -24 36 C-22.8553125 36.2784375 -22.8553125 36.2784375 -21.6875 36.5625 C-18.91032625 37.22819173 -18.91032625 37.22819173 -16 36 C-16.33773437 35.27554688 -16.67546875 34.55109375 -17.0234375 33.8046875 C-17.46945313 32.83789062 -17.91546875 31.87109375 -18.375 30.875 C-18.81585937 29.92367187 -19.25671875 28.97234375 -19.7109375 27.9921875 C-22.20992405 22.19150963 -23.284277 17.44707161 -23.125 11.125 C-23.11146484 10.09246094 -23.11146484 10.09246094 -23.09765625 9.0390625 C-23.07432513 7.35922162 -23.03846326 5.67956254 -23 4 C-21.75863281 3.96261719 -20.51726563 3.92523438 -19.23828125 3.88671875 C-17.59632489 3.8210405 -15.95439913 3.7545938 -14.3125 3.6875 C-13.08756836 3.65366211 -13.08756836 3.65366211 -11.83789062 3.61914062 C-6.81401659 3.43509307 -6.81401659 3.43509307 -2.35546875 1.26953125 C-1.57816406 0.85058594 -0.80085938 0.43164062 0 0 Z M-4 5 C-5.90112305 5.31884766 -5.90112305 5.31884766 -8.01171875 5.4140625 C-9.14770508 5.47207031 -9.14770508 5.47207031 -10.30664062 5.53125 C-11.09232422 5.5621875 -11.87800781 5.593125 -12.6875 5.625 C-13.48478516 5.66367188 -14.28207031 5.70234375 -15.10351562 5.7421875 C-17.06863475 5.83632494 -19.0342854 5.91924632 -21 6 C-21.34965625 13.65358671 -21.05320963 19.93699576 -18 27 C-17.70996094 27.74636719 -17.41992188 28.49273437 -17.12109375 29.26171875 C-15.17472682 33.81710928 -15.17472682 33.81710928 -11 36.3125 C-10.01 36.539375 -9.02 36.76625 -8 37 C-5.625 38.4375 -5.625 38.4375 -4 40 C-4 40.99 -4 41.98 -4 43 C-4.99 43.495 -4.99 43.495 -6 44 C-4.35 45.32 -2.7 46.64 -1 48 C2.37503669 46.8141763 4.64722731 45.72426311 7 43 C6.34 43 5.68 43 5 43 C4.67 41.68 4.34 40.36 4 39 C3.67 40.65 3.34 42.3 3 44 C1.68 44 0.36 44 -1 44 C-0.67 42.35 -0.34 40.7 0 39 C0.59167969 38.89042969 1.18335937 38.78085938 1.79296875 38.66796875 C6.42481616 37.73857686 10.07948332 36.76742354 14 34 C14.99 33.34 15.98 32.68 17 32 C21.43863355 23.49006808 22.16762406 15.42419721 22 6 C20.21142578 5.92652344 20.21142578 5.92652344 18.38671875 5.8515625 C16.82028932 5.77652396 15.25388421 5.7009766 13.6875 5.625 C12.50897461 5.57859375 12.50897461 5.57859375 11.30664062 5.53125 C10.54931641 5.49257812 9.79199219 5.45390625 9.01171875 5.4140625 C7.96697388 5.36693115 7.96697388 5.36693115 6.90112305 5.31884766 C5 5 5 5 2 3 C-1.18490007 2.7226499 -1.18490007 2.7226499 -4 5 Z " fill="#D5B06E" transform="translate(49,70)"/>
<path d="M0 0 C5.94 0 11.88 0 18 0 C19.08657605 8.44186011 19.83533942 15.04048053 15.7890625 22.71484375 C11.86169944 27.73123543 6.40665535 29.46057725 0.375 30.8125 C-0.800625 30.9053125 -0.800625 30.9053125 -2 31 C-2.495 33.475 -2.495 33.475 -3 36 C-1.68 36 -0.36 36 1 36 C1.33 34.35 1.66 32.7 2 31 C2.12375 31.639375 2.2475 32.27875 2.375 32.9375 C2.58125 33.618125 2.7875 34.29875 3 35 C3.66 35.33 4.32 35.66 5 36 C3.02 37.32 1.04 38.64 -1 40 C-3.88437779 38.70700306 -5.87219421 37.34058637 -8 35 C-7.34 35 -6.68 35 -6 35 C-6 33.68 -6 32.36 -6 31 C-8.46326712 29.3553326 -8.46326712 29.3553326 -11 28 C-11 27.34 -11 26.68 -11 26 C-8.03 26 -5.06 26 -2 26 C-1.67 25.34 -1.34 24.68 -1 24 C-1 24.66 -1 25.32 -1 26 C1.97 25.34 4.94 24.68 8 24 C2.06 23.67 -3.88 23.34 -10 23 C-10.33 23.66 -10.66 24.32 -11 25 C-12.32 25 -13.64 25 -15 25 C-15.33 24.01 -15.66 23.02 -16 22 C-14.72125 21.855625 -13.4425 21.71125 -12.125 21.5625 C-9.74307106 21.29357254 -8.15547309 21.07773654 -6 20 C-6 20.66 -6 21.32 -6 22 C-5.31550781 21.82597656 -4.63101563 21.65195313 -3.92578125 21.47265625 C-0.54524278 20.92653455 2.40550643 21.12777331 5.8125 21.4375 C6.97394531 21.53933594 8.13539062 21.64117187 9.33203125 21.74609375 C10.21246094 21.82988281 11.09289062 21.91367188 12 22 C11.01 21.67 10.02 21.34 9 21 C9 19.02 9 17.04 9 15 C9.99 14.67 10.98 14.34 12 14 C10.02 14 8.04 14 6 14 C6 16.31 6 18.62 6 21 C5.67 20.01 5.34 19.02 5 18 C3.68 18 2.36 18 1 18 C1 17.01 1 16.02 1 15 C1.99 14.67 2.98 14.34 4 14 C2.35 14 0.7 14 -1 14 C-2 9.25 -2 9.25 -2 7 C-1.01 7 -0.02 7 1 7 C0.67 4.69 0.34 2.38 0 0 Z " fill="#AE1A1B" transform="translate(51,78)"/>
<path d="M0 0 C1.32 0 2.64 0 4 0 C4.33 1.32 4.66 2.64 5 4 C5.33 2.68 5.66 1.36 6 0 C13.59 0 21.18 0 29 0 C30.06546953 3.1964086 30.07427838 5.65747276 30 9 C29.01 8.67 28.02 8.34 27 8 C27 5.69 27 3.38 27 1 C26.34 1 25.68 1 25 1 C25.33 3.64 25.66 6.28 26 9 C21.05 9 16.1 9 11 9 C10.67 12.63 10.34 16.26 10 20 C9.01 20 8.02 20 7 20 C7 18.68 7 17.36 7 16 C6.34 16 5.68 16 5 16 C5 17.32 5 18.64 5 20 C3.68 19.67 2.36 19.34 1 19 C1 16.03 1 13.06 1 10 C1.99 9.67 2.98 9.34 4 9 C2.68 6.03 1.36 3.06 0 0 Z " fill="#E3B1B2" transform="translate(112,102)"/>
<path d="M0 0 C7.59 0 15.18 0 23 0 C23 2.31 23 4.62 23 7 C22.34 7 21.68 7 21 7 C20.46375 6.360625 19.9275 5.72125 19.375 5.0625 C15.99583942 2.12796581 13.41453428 2.29430229 9 2 C9 4.64 9 7.28 9 10 C11.91517292 8.92598892 13.77810176 8.22189824 16 6 C16 9.3 16 12.6 16 16 C15.34 14.68 14.68 13.36 14 12 C12.35 12 10.7 12 9 12 C9 14.64 9 17.28 9 20 C15.97975666 20.0161925 15.97975666 20.0161925 21.625 16.4375 C22.07875 15.633125 22.5325 14.82875 23 14 C23 16.64 23 19.28 23 22 C15.41 22 7.82 22 0 22 C0 21.34 0 20.68 0 20 C0.99 20 1.98 20 3 20 C3 14.06 3 8.12 3 2 C2.01 2 1.02 2 0 2 C0 1.34 0 0.68 0 0 Z " fill="#BD3032" transform="translate(155,73)"/>
<path d="M0 0 C1.0528418 0.01353516 1.0528418 0.01353516 2.12695312 0.02734375 C3.85561525 0.05086296 5.58410145 0.08673287 7.3125 0.125 C7.3125 2.435 7.3125 4.745 7.3125 7.125 C4.3125 6.125 4.3125 6.125 2.3125 3.125 C0.33502878 2.76202064 0.33502878 2.76202064 -1.8125 2.9375 C-3.09125 2.999375 -4.37 3.06125 -5.6875 3.125 C-7.11347611 5.97695222 -6.8195252 8.44961175 -6.8125 11.625 C-6.81507813 12.7903125 -6.81765625 13.955625 -6.8203125 15.15625 C-6.8923431 18.05430786 -6.8923431 18.05430786 -5.6875 20.125 C-3.7075 20.125 -1.7275 20.125 0.3125 20.125 C1.3025 16.66 1.3025 16.66 2.3125 13.125 C1.3225 13.125 0.3325 13.125 -0.6875 13.125 C-0.6875 12.465 -0.6875 11.805 -0.6875 11.125 C2.9425 11.125 6.5725 11.125 10.3125 11.125 C10.3125 11.785 10.3125 12.445 10.3125 13.125 C9.3225 13.62 9.3225 13.62 8.3125 14.125 C7.84726937 16.02033342 7.84726937 16.02033342 7.6875 18.1875 C7.56375 19.486875 7.44 20.78625 7.3125 22.125 C6.673125 21.939375 6.03375 21.75375 5.375 21.5625 C4.3540625 21.3459375 4.3540625 21.3459375 3.3125 21.125 C2.9825 21.455 2.6525 21.785 2.3125 22.125 C-6.94344488 23.3518786 -6.94344488 23.3518786 -10.4921875 20.85546875 C-13.96028511 16.63834414 -15.206244 13.51993755 -14.6875 8.125 C-10.81378462 1.1790276 -7.66548439 -0.18609019 0 0 Z " fill="#BF393C" transform="translate(142.6875,72.875)"/>
<path d="M0 0 C2.6328125 1.0546875 2.6328125 1.0546875 4.328125 4.546875 C4.82522307 6.0009533 5.30105151 7.46243851 5.7578125 8.9296875 C6.23193238 10.38792647 6.7134664 11.84378003 7.203125 13.296875 C7.40695801 13.9451123 7.61079102 14.59334961 7.82080078 15.26123047 C8.75867258 17.33266951 10.02679396 18.4720171 11.6328125 20.0546875 C11.6328125 20.7146875 11.6328125 21.3746875 11.6328125 22.0546875 C8.0028125 22.0546875 4.3728125 22.0546875 0.6328125 22.0546875 C0.6328125 21.3946875 0.6328125 20.7346875 0.6328125 20.0546875 C1.2928125 20.0546875 1.9528125 20.0546875 2.6328125 20.0546875 C2.3028125 18.7346875 1.9728125 17.4146875 1.6328125 16.0546875 C-1.3371875 15.7246875 -4.3071875 15.3946875 -7.3671875 15.0546875 C-7.6971875 16.7046875 -8.0271875 18.3546875 -8.3671875 20.0546875 C-7.3771875 20.3846875 -6.3871875 20.7146875 -5.3671875 21.0546875 C-5.3671875 21.3846875 -5.3671875 21.7146875 -5.3671875 22.0546875 C-7.6771875 22.0546875 -9.9871875 22.0546875 -12.3671875 22.0546875 C-12.3671875 21.3946875 -12.3671875 20.7346875 -12.3671875 20.0546875 C-11.7071875 20.0546875 -11.0471875 20.0546875 -10.3671875 20.0546875 C-10.19703125 19.52101563 -10.026875 18.98734375 -9.8515625 18.4375 C-3.88377381 0.08972415 -3.88377381 0.08972415 0 0 Z " fill="#C24649" transform="translate(115.3671875,72.9453125)"/>
<path d="M0 0 C3.96 0 7.92 0 12 0 C11.95117188 3.36914062 11.95117188 3.36914062 11.90234375 6.73828125 C11.90342145 9.16861334 11.90342145 9.16861334 13 12 C12.72230092 14.3406065 12.39460023 16.67624308 12 19 C13.32 18.67 14.64 18.34 16 18 C16 18.66 16 19.32 16 20 C11.71 20 7.42 20 3 20 C3 19.01 3 18.02 3 17 C2.01 17 1.02 17 0 17 C0.165 16.236875 0.33 15.47375 0.5 14.6875 C1.09145396 11.96403764 1.09145396 11.96403764 1 9 C0.34 9 -0.32 9 -1 9 C-0.67 8.01 -0.34 7.02 0 6 C-0.33 5.34 -0.66 4.68 -1 4 C-0.67 2.68 -0.34 1.36 0 0 Z " fill="#EFCFCF" transform="translate(146,102)"/>
<path d="M0 0 C1.9375 0.6875 1.9375 0.6875 3.9375 1.6875 C6.81660588 1.92024209 9.67896495 2.10722757 12.5625 2.25 C13.36429688 2.29318359 14.16609375 2.33636719 14.9921875 2.38085938 C16.9737511 2.48701457 18.95560271 2.58776855 20.9375 2.6875 C20.9375 5.9875 20.9375 9.2875 20.9375 12.6875 C20.2775 13.0175 19.6175 13.3475 18.9375 13.6875 C18.9375 10.7175 18.9375 7.7475 18.9375 4.6875 C17.6175 5.0175 16.2975 5.3475 14.9375 5.6875 C13.08511924 5.77890921 11.22962791 5.81754661 9.375 5.8125 C8.42496094 5.81507812 7.47492187 5.81765625 6.49609375 5.8203125 C3.9375 5.6875 3.9375 5.6875 0.9375 4.6875 C1.2675 6.9975 1.5975 9.3075 1.9375 11.6875 C0.9475 11.6875 -0.0425 11.6875 -1.0625 11.6875 C-0.7325 13.0075 -0.4025 14.3275 -0.0625 15.6875 C-1.3825 15.0275 -2.7025 14.3675 -4.0625 13.6875 C-4.42879408 9.41406908 -3.47064077 7.19937196 -1.0625 3.6875 C-1.56265625 4.01492187 -2.0628125 4.34234375 -2.578125 4.6796875 C-5.98042104 6.0598642 -9.20600651 5.90112838 -12.8125 5.8125 C-13.50988281 5.80347656 -14.20726562 5.79445313 -14.92578125 5.78515625 C-16.63816958 5.76169888 -18.35038004 5.72583104 -20.0625 5.6875 C-20.0625 8.6575 -20.0625 11.6275 -20.0625 14.6875 C-20.7225 14.6875 -21.3825 14.6875 -22.0625 14.6875 C-22.0625 10.7275 -22.0625 6.7675 -22.0625 2.6875 C-20.87011719 2.63851562 -19.67773438 2.58953125 -18.44921875 2.5390625 C-16.88278932 2.46402396 -15.31638421 2.3884766 -13.75 2.3125 C-12.96431641 2.2815625 -12.17863281 2.250625 -11.36914062 2.21875 C-10.61181641 2.18007812 -9.85449219 2.14140625 -9.07421875 2.1015625 C-8.37772217 2.0701416 -7.68122559 2.0387207 -6.96362305 2.00634766 C-4.08537083 1.52362037 -3.00101193 -0.45469878 0 0 Z " fill="#BD402F" transform="translate(50.0625,73.3125)"/>
<path d="M0 0 C1.08667969 0.01804687 2.17335938 0.03609375 3.29296875 0.0546875 C4.54013672 0.08949219 4.54013672 0.08949219 5.8125 0.125 C5.8125 2.105 5.8125 4.085 5.8125 6.125 C4.925625 5.485625 4.03875 4.84625 3.125 4.1875 C0.12038572 2.31670243 -1.7385371 1.53076034 -5.1875 1.125 C-5.07484703 3.56863008 -5.07484703 3.56863008 -4.1875 6.125 C-1.96624162 7.52535495 -1.96624162 7.52535495 0.75 8.3125 C5.66032609 9.97282609 5.66032609 9.97282609 7.8125 12.125 C8.1875 15.5625 8.1875 15.5625 7.8125 19.125 C5.38158854 21.77360503 3.97273976 22.111405 0.359375 22.41796875 C-0.89359375 22.38316406 -2.1465625 22.34835938 -3.4375 22.3125 C-4.70078125 22.28542969 -5.9640625 22.25835937 -7.265625 22.23046875 C-8.22984375 22.19566406 -9.1940625 22.16085938 -10.1875 22.125 C-10.1875 19.485 -10.1875 16.845 -10.1875 14.125 C-9.5275 14.125 -8.8675 14.125 -8.1875 14.125 C-7.445 15.115 -6.7025 16.105 -5.9375 17.125 C-4.68520648 18.80669723 -4.68520648 18.80669723 -3.1875 20.125 C0.02410696 20.62765692 0.02410696 20.62765692 2.8125 20.125 C3.1425 18.475 3.4725 16.825 3.8125 15.125 C3.05324219 14.95484375 2.29398438 14.7846875 1.51171875 14.609375 C0.51785156 14.36703125 -0.47601563 14.1246875 -1.5 13.875 C-2.97919922 13.52695313 -2.97919922 13.52695313 -4.48828125 13.171875 C-7.5757094 11.97443543 -8.61608517 11.00862722 -10.1875 8.125 C-10.0625 5 -10.0625 5 -9.1875 2.125 C-5.66070901 -0.22619399 -4.15870515 -0.08943452 0 0 Z " fill="#C04144" transform="translate(94.1875,72.875)"/>
<path d="M0 0 C0.66 0 1.32 0 2 0 C2 0.66 2 1.32 2 2 C2.68449219 1.82597656 3.36898437 1.65195313 4.07421875 1.47265625 C7.45475722 0.92653455 10.40550643 1.12777331 13.8125 1.4375 C15.55466797 1.59025391 15.55466797 1.59025391 17.33203125 1.74609375 C18.21246094 1.82988281 19.09289062 1.91367188 20 2 C20.33 3.32 20.66 4.64 21 6 C19.33333333 6.66666667 17.66666667 7.33333333 16 8 C15.175 8.350625 14.35 8.70125 13.5 9.0625 C11.00665785 9.99750331 8.62036533 10.55079451 6 11 C5.67 12.65 5.34 14.3 5 16 C6.32 16 7.64 16 9 16 C9.33 14.35 9.66 12.7 10 11 C10.12375 11.639375 10.2475 12.27875 10.375 12.9375 C10.58125 13.618125 10.7875 14.29875 11 15 C11.66 15.33 12.32 15.66 13 16 C11.02 17.32 9.04 18.64 7 20 C4.11562221 18.70700306 2.12780579 17.34058637 0 15 C0.66 15 1.32 15 2 15 C2 13.68 2 12.36 2 11 C-0.46326712 9.3553326 -0.46326712 9.3553326 -3 8 C-3 7.34 -3 6.68 -3 6 C-0.03 6 2.94 6 6 6 C6.33 5.34 6.66 4.68 7 4 C7 4.66 7 5.32 7 6 C9.97 5.34 12.94 4.68 16 4 C10.06 3.67 4.12 3.34 -2 3 C-2.33 3.66 -2.66 4.32 -3 5 C-4.32 5 -5.64 5 -7 5 C-7.33 4.01 -7.66 3.02 -8 2 C-5.36 1.67 -2.72 1.34 0 1 C0 0.67 0 0.34 0 0 Z " fill="#921813" transform="translate(43,98)"/>
<path d="M0 0 C1.70807442 0.68281967 3.41425907 1.38202262 5.05517578 2.21337891 C8.57993429 3.63903443 12.19241859 3.31265696 15.9375 3.1875 C17.10635742 3.16719727 17.10635742 3.16719727 18.29882812 3.14648438 C20.19952404 3.11150224 22.09985834 3.05770959 24 3 C24.33328851 11.56674915 24.11584616 18.95073076 21 27 C20.67 27 20.34 27 20 27 C20.6258645 19.99564408 21.28674095 12.99600901 22 6 C20.80761719 6.02320312 19.61523438 6.04640625 18.38671875 6.0703125 C16.82031876 6.08907178 15.253912 6.10727181 13.6875 6.125 C12.90181641 6.14175781 12.11613281 6.15851563 11.30664062 6.17578125 C10.54931641 6.18222656 9.79199219 6.18867187 9.01171875 6.1953125 C7.96697388 6.21102295 7.96697388 6.21102295 6.90112305 6.22705078 C5 6 5 6 2 4 C-1.31086259 4.28274138 -1.31086259 4.28274138 -4 6 C-6.86267567 6.07325168 -9.700719 6.09238205 -12.5625 6.0625 C-13.36880859 6.05798828 -14.17511719 6.05347656 -15.00585938 6.04882812 C-17.00393756 6.03700518 -19.00197783 6.01906914 -21 6 C-21 10.29 -21 14.58 -21 19 C-21.66 19 -22.32 19 -23 19 C-23 14.05 -23 9.1 -23 4 C-21.75863281 3.96261719 -20.51726563 3.92523438 -19.23828125 3.88671875 C-17.59632489 3.8210405 -15.95439913 3.7545938 -14.3125 3.6875 C-13.08756836 3.65366211 -13.08756836 3.65366211 -11.83789062 3.61914062 C-6.81401659 3.43509307 -6.81401659 3.43509307 -2.35546875 1.26953125 C-1.57816406 0.85058594 -0.80085938 0.43164062 0 0 Z " fill="#E9CD8C" transform="translate(49,70)"/>
<path d="M0 0 C3.3 0 6.6 0 10 0 C10 0.99 10 1.98 10 3 C10.66 3 11.32 3 12 3 C12.33 2.01 12.66 1.02 13 0 C14.65 0 16.3 0 18 0 C17.67 0.66 17.34 1.32 17 2 C16.34 1.67 15.68 1.34 15 1 C15 1.99 15 2.98 15 4 C16.32 4 17.64 4 19 4 C19.33 2.68 19.66 1.36 20 0 C21.98 0 23.96 0 26 0 C25.67 0.66 25.34 1.32 25 2 C24.34 1.67 23.68 1.34 23 1 C23 2.98 23 4.96 23 7 C23.99 6.67 24.98 6.34 26 6 C26 6.66 26 7.32 26 8 C23.02077407 8.02683987 20.04178705 8.04676037 17.0625 8.0625 C15.78729492 8.07506836 15.78729492 8.07506836 14.48632812 8.08789062 C13.67744141 8.09111328 12.86855469 8.09433594 12.03515625 8.09765625 C11.2862915 8.10289307 10.53742676 8.10812988 9.76586914 8.11352539 C8 8 8 8 7 7 C7 7.33 7 7.66 7 8 C4.03 8 1.06 8 -2 8 C-2 7.34 -2 6.68 -2 6 C-1.01 6 -0.02 6 1 6 C0.34 5.67 -0.32 5.34 -1 5 C-0.67 3.35 -0.34 1.7 0 0 Z " fill="#D9A655" transform="translate(37,92)"/>
<path d="M0 0 C0.33 0 0.66 0 1 0 C0.49202991 4.3177458 -0.19682779 8.03302114 -2 12 C1.05263664 12.98120464 2.94736336 12.98120464 6 12 C6 14.64 6 17.28 6 20 C2.73026158 19.55121237 -0.51583353 19.09903405 -3.75 18.4375 C-6.10878434 17.90456517 -6.10878434 17.90456517 -9 18 C-9.12375 17.360625 -9.2475 16.72125 -9.375 16.0625 C-9.58125 15.381875 -9.7875 14.70125 -10 14 C-10.66 13.67 -11.32 13.34 -12 13 C-5.25 9.125 -5.25 9.125 -3 8 C-2.09656316 6.11736119 -2.09656316 6.11736119 -1.375 3.9375 C-1.11460938 3.20402344 -0.85421875 2.47054687 -0.5859375 1.71484375 C-0.39257812 1.14894531 -0.19921875 0.58304687 0 0 Z " fill="#DFC587" transform="translate(68,94)"/>
<path d="M0 0 C1.25 2.5625 1.25 2.5625 2 5 C-1.75 8 -1.75 8 -4 8 C-4 8.66 -4 9.32 -4 10 C-7 12 -7 12 -8.953125 11.81640625 C-11.33981998 10.86446111 -12.84736517 9.65718917 -14.75 7.9375 C-15.36359375 7.38964844 -15.9771875 6.84179688 -16.609375 6.27734375 C-17.06828125 5.85582031 -17.5271875 5.43429688 -18 5 C-17.67 3.35 -17.34 1.7 -17 0 C-15.35 0.33 -13.7 0.66 -12 1 C-12.66 2.65 -13.32 4.3 -14 6 C-12.32511472 7.73647948 -12.32511472 7.73647948 -10 9 C-7.34754398 8.33903214 -7.34754398 8.33903214 -5 7 C-4.34 6.67 -3.68 6.34 -3 6 C-3.66 4.68 -4.32 3.36 -5 2 C-5.33 3.32 -5.66 4.64 -6 6 C-7.32 6 -8.64 6 -10 6 C-10 4.35 -10 2.7 -10 1 C-3.1056338 -1.66373239 -3.1056338 -1.66373239 0 0 Z " fill="#DBB066" transform="translate(58,108)"/>
<path d="M0 0 C3.3 0 6.6 0 10 0 C11.06546953 3.1964086 11.07427838 5.65747276 11 9 C10.01 8.67 9.02 8.34 8 8 C8 5.69 8 3.38 8 1 C7.34 1 6.68 1 6 1 C6.33 3.64 6.66 6.28 7 9 C4.69 9 2.38 9 0 9 C0 8.34 0 7.68 0 7 C-1.65 7.33 -3.3 7.66 -5 8 C-5 5.69 -5 3.38 -5 1 C-3.68 1.33 -2.36 1.66 -1 2 C-0.67 1.34 -0.34 0.68 0 0 Z " fill="#F8EFEF" transform="translate(131,102)"/>
<path d="M0 0 C-0.64544429 3.48539917 -2.10134397 6.02819057 -4 9 C-11.48507463 8.1119403 -11.48507463 8.1119403 -14.875 7.375 C-17.04533618 6.77439854 -17.04533618 6.77439854 -19 8 C-19 6.02 -19 4.04 -19 2 C-17.41058594 1.90912109 -17.41058594 1.90912109 -15.7890625 1.81640625 C-14.40102779 1.73199873 -13.01300768 1.64735083 -11.625 1.5625 C-10.92632812 1.52318359 -10.22765625 1.48386719 -9.5078125 1.44335938 C-6.19444366 1.23627382 -3.14965628 0 0 0 Z " fill="#AE1A1A" transform="translate(49,77)"/>
<path d="M0 0 C2.97 0 5.94 0 9 0 C9.33 1.65 9.66 3.3 10 5 C9.34 5 8.68 5 8 5 C8 5.66 8 6.32 8 7 C13.94 6.505 13.94 6.505 20 6 C20 6.66 20 7.32 20 8 C16.97950658 8.19613594 13.95894342 8.38214855 10.9375 8.5625 C10.08994141 8.61857422 9.24238281 8.67464844 8.36914062 8.73242188 C3.39662713 9.02040528 -1.09776245 8.89796753 -6 8 C-5.67 7.34 -5.34 6.68 -5 6 C-3.02 6 -1.04 6 1 6 C0.34 5.67 -0.32 5.34 -1 5 C-0.67 3.35 -0.34 1.7 0 0 Z " fill="#F8EEEE" transform="translate(108,88)"/>
<path d="M0 0 C1.77131561 0.30975468 3.54203778 0.62290425 5.3125 0.9375 C6.79169922 1.19853516 6.79169922 1.19853516 8.30078125 1.46484375 C11 2 11 2 14 3 C13.67 5.31 13.34 7.62 13 10 C12.01 9.67 11.02 9.34 10 9 C10 8.34 10 7.68 10 7 C9.34 7 8.68 7 8 7 C8 6.34 8 5.68 8 5 C8.99 4.67 9.98 4.34 11 4 C9.02 4 7.04 4 5 4 C5 6.31 5 8.62 5 11 C4.67 10.01 4.34 9.02 4 8 C2.68 8 1.36 8 0 8 C0 7.01 0 6.02 0 5 C0.99 4.67 1.98 4.34 3 4 C1.35 4 -0.3 4 -2 4 C-1.34 2.68 -0.68 1.36 0 0 Z " fill="#A31416" transform="translate(52,88)"/>
<path d="M0 0 C2.97 0.33 5.94 0.66 9 1 C9 3.97 9 6.94 9 10 C8.01 10 7.02 10 6 10 C6 8.68 6 7.36 6 6 C5.34 6 4.68 6 4 6 C4 7.32 4 8.64 4 10 C2.68 9.67 1.36 9.34 0 9 C0 6.03 0 3.06 0 0 Z " fill="#DB9696" transform="translate(113,112)"/>
<path d="M0 0 C3.3 0 6.6 0 10 0 C9.67 0.66 9.34 1.32 9 2 C8.34 1.67 7.68 1.34 7 1 C7.185625 1.78375 7.37125 2.5675 7.5625 3.375 C8 6 8 6 7 8 C4.03 8 1.06 8 -2 8 C-2 7.34 -2 6.68 -2 6 C-1.01 6 -0.02 6 1 6 C0.34 5.67 -0.32 5.34 -1 5 C-0.67 3.35 -0.34 1.7 0 0 Z " fill="#BE6E3B" transform="translate(37,92)"/>
<path d="M0 0 C2.31 0 4.62 0 7 0 C7.59732819 2.76264289 8 5.16032769 8 8 C5.29120665 9.35439668 2.99066732 9.06501451 0 9 C0 6.03 0 3.06 0 0 Z " fill="#C65556" transform="translate(103,113)"/>
<path d="M0 0 C2.97 0.495 2.97 0.495 6 1 C5.67 2.98 5.34 4.96 5 7 C6.32 7 7.64 7 9 7 C9.33 5.35 9.66 3.7 10 2 C10.12375 2.639375 10.2475 3.27875 10.375 3.9375 C10.58125 4.618125 10.7875 5.29875 11 6 C11.66 6.33 12.32 6.66 13 7 C11.02 8.32 9.04 9.64 7 11 C4.11562221 9.70700306 2.12780579 8.34058637 0 6 C0.66 6 1.32 6 2 6 C2 4.68 2 3.36 2 2 C1.34 1.34 0.68 0.68 0 0 Z " fill="#9C4B2E" transform="translate(43,107)"/>
<path d="M0 0 C2.625 0.375 2.625 0.375 5 1 C5.625 3.3125 5.625 3.3125 6 6 C5.01 7.485 5.01 7.485 4 9 C-0.875 8.125 -0.875 8.125 -2 7 C-2.1875 4.5625 -2.1875 4.5625 -2 2 C-1.34 1.34 -0.68 0.68 0 0 Z " fill="#C65457" transform="translate(127,113)"/>
<path d="M0 0 C0.33328851 8.56674915 0.11584616 15.95073076 -3 24 C-3.33 24 -3.66 24 -4 24 C-3.33333333 16.66666667 -2.66666667 9.33333333 -2 2 C-6.29 2 -10.58 2 -15 2 C-15 1.67 -15 1.34 -15 1 C-12.8750734 0.83240016 -10.75005624 0.66594799 -8.625 0.5 C-7.44164063 0.4071875 -6.25828125 0.314375 -5.0390625 0.21875 C-3.36213157 0.09804546 -1.68126944 0 0 0 Z " fill="#EFE0A9" transform="translate(73,73)"/>
<path d="M0 0 C12.32142857 -0.26785714 12.32142857 -0.26785714 16 2 C12.84493858 2.93619813 10.03413498 3.1057123 6.75 3.0625 C5.85796875 3.05347656 4.9659375 3.04445313 4.046875 3.03515625 C3.37140625 3.02355469 2.6959375 3.01195313 2 3 C2 5.97 2 8.94 2 12 C1.34 12 0.68 12 0 12 C0 8.04 0 4.08 0 0 Z " fill="#B94731" transform="translate(28,76)"/>
<path d="M0 0 C7.59 0 15.18 0 23 0 C23 2.31 23 4.62 23 7 C22.34 7 21.68 7 21 7 C20.45601562 6.35546875 19.91203125 5.7109375 19.3515625 5.046875 C16.20272731 2.30602842 13.36907862 2.33416641 9.375 2.25 C8.3540625 2.20552734 8.3540625 2.20552734 7.3125 2.16015625 C4.87483874 2.05898849 2.43980545 2 0 2 C0 1.34 0 0.68 0 0 Z " fill="#C86264" transform="translate(155,73)"/>
<path d="M0 0 C6.93 0 13.86 0 21 0 C20.01 1.485 20.01 1.485 19 3 C17.02880859 3.34057617 17.02880859 3.34057617 14.6484375 3.29296875 C13.79765625 3.28330078 12.946875 3.27363281 12.0703125 3.26367188 C11.18085937 3.23853516 10.29140625 3.21339844 9.375 3.1875 C8.4778125 3.17396484 7.580625 3.16042969 6.65625 3.14648438 C4.43690211 3.11106925 2.21874812 3.06168461 0 3 C0 2.01 0 1.02 0 0 Z " fill="#C37C41" transform="translate(39,101)"/>
<path d="M0 0 C0.33 0 0.66 0 1 0 C1 2.64 1 5.28 1 8 C-6.59 8 -14.18 8 -22 8 C-22 7.34 -22 6.68 -22 6 C-20.72125 6.020625 -19.4425 6.04125 -18.125 6.0625 C-16.41657386 6.05168718 -14.7081944 6.03014461 -13 6 C-12.1028125 5.98453125 -11.205625 5.9690625 -10.28125 5.953125 C-7.75029806 5.81913343 -5.4520317 5.6459898 -3 5 C-0.8613923 2.61012067 -0.8613923 2.61012067 0 0 Z " fill="#C55355" transform="translate(177,87)"/>
<path d="M0 0 C4.62 0 9.24 0 14 0 C12 2 12 2 9.6171875 2.1953125 C8.71226563 2.17210938 7.80734375 2.14890625 6.875 2.125 C4.461875 2.063125 4.461875 2.063125 2 2 C2 6.29 2 10.58 2 15 C1.34 15 0.68 15 0 15 C0 10.05 0 5.1 0 0 Z " fill="#ECD89A" transform="translate(26,74)"/>
<path d="M0 0 C1.1484375 1.640625 1.1484375 1.640625 2 4 C1.1015625 6.796875 1.1015625 6.796875 -0.375 9.75 C-0.85710937 10.73484375 -1.33921875 11.7196875 -1.8359375 12.734375 C-2.22007813 13.48203125 -2.60421875 14.2296875 -3 15 C-5 14 -5 14 -6 11 C-6.66 11 -7.32 11 -8 11 C-8 9.68 -8 8.36 -8 7 C-7.34 7 -6.68 7 -6 7 C-6 7.66 -6 8.32 -6 9 C-2.91240441 8.35932024 -2.91240441 8.35932024 -2.05078125 6.15234375 C-1.80714844 5.42144531 -1.56351562 4.69054687 -1.3125 3.9375 C-1.06113281 3.20402344 -0.80976562 2.47054687 -0.55078125 1.71484375 C-0.36902344 1.14894531 -0.18726562 0.58304687 0 0 Z " fill="#AB492C" transform="translate(68,88)"/>
<path d="M0 0 C2.31 0 4.62 0 7 0 C8.06546953 3.1964086 8.07427838 5.65747276 8 9 C7.01 8.67 6.02 8.34 5 8 C5 5.69 5 3.38 5 1 C4.34 1 3.68 1 3 1 C3.33 3.64 3.66 6.28 4 9 C2.68 8.67 1.36 8.34 0 8 C0 5.36 0 2.72 0 0 Z " fill="#C7585A" transform="translate(134,102)"/>
<path d="M0 0 C0.66 0.33 1.32 0.66 2 1 C1.67 3.31 1.34 5.62 1 8 C-0.32 8.33 -1.64 8.66 -3 9 C-3.12375 8.360625 -3.2475 7.72125 -3.375 7.0625 C-3.684375 6.0415625 -3.684375 6.0415625 -4 5 C-4.66 4.67 -5.32 4.34 -6 4 C-4.02 2.68 -2.04 1.36 0 0 Z " fill="#C68F4E" transform="translate(62,103)"/>
<path d="M0 0 C0.66 0 1.32 0 2 0 C2 0.66 2 1.32 2 2 C2.61875 1.814375 3.2375 1.62875 3.875 1.4375 C8.3323206 0.81347512 12.55486111 1.43896305 17 2 C17 2.33 17 2.66 17 3 C10.73 3 4.46 3 -2 3 C-2.33 3.66 -2.66 4.32 -3 5 C-4.32 5 -5.64 5 -7 5 C-7.33 4.01 -7.66 3.02 -8 2 C-5.36 1.67 -2.72 1.34 0 1 C0 0.67 0 0.34 0 0 Z " fill="#8A0706" transform="translate(43,98)"/>
<path d="M0 0 C1.9375 0.3125 1.9375 0.3125 4 1 C4.33 1.99 4.66 2.98 5 4 C5.66 4 6.32 4 7 4 C6.67 2.68 6.34 1.36 6 0 C6.99 0.33 7.98 0.66 9 1 C8.67 3.64 8.34 6.28 8 9 C6.35 7.35 4.7 5.7 3 4 C3 5.65 3 7.3 3 9 C2.01 8.67 1.02 8.34 0 8 C0 5.36 0 2.72 0 0 Z " fill="#C96062" transform="translate(95,102)"/>
<path d="M0 0 C0.66 0 1.32 0 2 0 C2.33 2.31 2.66 4.62 3 7 C2.01 7 1.02 7 0 7 C0.33 8.32 0.66 9.64 1 11 C-0.32 10.34 -1.64 9.68 -3 9 C-3.25532751 5.93606987 -3.21861333 4.36766788 -1.625 1.6875 C-0.820625 0.8521875 -0.820625 0.8521875 0 0 Z " fill="#CAA565" transform="translate(49,78)"/>
<path d="M0 0 C1.65 0 3.3 0 5 0 C5 0.66 5 1.32 5 2 C3.68 1.67 2.36 1.34 1 1 C1.33 1.66 1.66 2.32 2 3 C2.99 3.33 3.98 3.66 5 4 C4.67 5.65 4.34 7.3 4 9 C2.35 9 0.7 9 -1 9 C-0.67 8.01 -0.34 7.02 0 6 C-0.33 5.34 -0.66 4.68 -1 4 C-0.5625 1.875 -0.5625 1.875 0 0 Z " fill="#CE6E70" transform="translate(146,102)"/>
<path d="M0 0 C0.33 0 0.66 0 1 0 C1 2.97 1 5.94 1 9 C-1.94386623 10.47193312 -4.37390036 9.84936173 -7.625 9.5625 C-8.81351563 9.46066406 -10.00203125 9.35882813 -11.2265625 9.25390625 C-12.14179688 9.17011719 -13.05703125 9.08632812 -14 9 C-14 8.67 -14 8.34 -14 8 C-12.58366664 7.83052421 -11.16691467 7.66454493 -9.75 7.5 C-8.56664062 7.36078125 -8.56664062 7.36078125 -7.359375 7.21875 C-5 7 -5 7 -1 7 C-0.67 4.69 -0.34 2.38 0 0 Z " fill="#EAC8C8" transform="translate(150,87)"/>
<path d="M0 0 C1.32 0 2.64 0 4 0 C4 2.64 4 5.28 4 8 C5.32 7.67 6.64 7.34 8 7 C8 7.66 8 8.32 8 9 C5.36 9 2.72 9 0 9 C0 6.03 0 3.06 0 0 Z " fill="#CB696B" transform="translate(154,113)"/>
<path d="M0 0 C1.32 0.33 2.64 0.66 4 1 C4 2.98 4 4.96 4 7 C4.66 7 5.32 7 6 7 C6.33 4.69 6.66 2.38 7 0 C7.66 0.33 8.32 0.66 9 1 C8.125 7.875 8.125 7.875 7 9 C4.5 9.125 4.5 9.125 2 9 C-0.04698414 6.95301586 0.29954307 2.69588759 0 0 Z " fill="#C95E60" transform="translate(84,102)"/>
<path d="M0 0 C1 1 2 2 3 3 C3.8353125 3.7734375 3.8353125 3.7734375 4.6875 4.5625 C6 6 6 6 6 8 C2.37 8 -1.26 8 -5 8 C-5 7.34 -5 6.68 -5 6 C-4.01 6 -3.02 6 -2 6 C-1.67 5.34 -1.34 4.68 -1 4 C-1 4.66 -1 5.32 -1 6 C-0.01 6 0.98 6 2 6 C1.34 4.02 0.68 2.04 0 0 Z " fill="#C04144" transform="translate(121,87)"/>
<path d="M0 0 C1.23593891 3.70781672 0.5678132 4.67510253 -0.9375 8.1875 C-1.31777344 9.08855469 -1.69804688 9.98960938 -2.08984375 10.91796875 C-2.39019531 11.60503906 -2.69054687 12.29210937 -3 13 C-2.01 13.33 -1.02 13.66 0 14 C0 14.33 0 14.66 0 15 C-2.31 15 -4.62 15 -7 15 C-7 14.34 -7 13.68 -7 13 C-6.34 13 -5.68 13 -5 13 C-4.80664062 12.39671875 -4.61328125 11.7934375 -4.4140625 11.171875 C-4.15367188 10.37265625 -3.89328125 9.5734375 -3.625 8.75 C-3.24214844 7.56664063 -3.24214844 7.56664063 -2.8515625 6.359375 C-2.04826333 4.13372042 -1.10288338 2.09068328 0 0 Z " fill="#BE373A" transform="translate(110,80)"/>
<path d="M0 0 C1.98 0 3.96 0 6 0 C5.67 0.66 5.34 1.32 5 2 C4.34 1.67 3.68 1.34 3 1 C3 2.98 3 4.96 3 7 C3.99 6.67 4.98 6.34 6 6 C6 6.66 6 7.32 6 8 C4.02 8 2.04 8 0 8 C0 5.36 0 2.72 0 0 Z " fill="#E2B85D" transform="translate(57,92)"/>
<path d="M0 0 C0 2.31 0 4.62 0 7 C-3 6 -3 6 -5 3 C-8.56769552 2.26393501 -8.56769552 2.26393501 -12 2 C-12 1.67 -12 1.34 -12 1 C-7.9472484 0.01751476 -4.16138263 -0.08159574 0 0 Z " fill="#C45052" transform="translate(150,73)"/>
<path d="M0 0 C1.09054688 0.02320312 2.18109375 0.04640625 3.3046875 0.0703125 C4.40039062 0.08835937 5.49609375 0.10640625 6.625 0.125 C7.46804687 0.14820312 8.31109375 0.17140625 9.1796875 0.1953125 C9.1796875 2.1753125 9.1796875 4.1553125 9.1796875 6.1953125 C8.2928125 5.5559375 7.4059375 4.9165625 6.4921875 4.2578125 C3.48757322 2.38701493 1.6286504 1.60107284 -1.8203125 1.1953125 C-2.4803125 2.5153125 -3.1403125 3.8353125 -3.8203125 5.1953125 C-4.1503125 4.2053125 -4.4803125 3.2153125 -4.8203125 2.1953125 C-2.8203125 0.1953125 -2.8203125 0.1953125 0 0 Z " fill="#BC2B2E" transform="translate(90.8203125,72.8046875)"/>
<path d="M0 0 C2.61047801 1.305239 2.68066423 2.35826574 3.625 5.0625 C3.88539063 5.79597656 4.14578125 6.52945313 4.4140625 7.28515625 C4.60742188 7.85105469 4.80078125 8.41695312 5 9 C3.68 9 2.36 9 1 9 C1 8.01 1 7.02 1 6 C0.01 6 -0.98 6 -2 6 C-1.125 1.125 -1.125 1.125 0 0 Z " fill="#CD6E6F" transform="translate(148,113)"/>
<path d="M0 0 C1.32 0 2.64 0 4 0 C4 2.97 4 5.94 4 9 C2.68 8.67 1.36 8.34 0 8 C0 5.36 0 2.72 0 0 Z " fill="#CB686A" transform="translate(106,102)"/>
<path d="M0 0 C1.86651342 2.31092138 3.20666376 4.4305495 4.5 7.125 C5.82827484 10.23297603 5.82827484 10.23297603 9 12 C7.35 12 5.7 12 4 12 C3.13353333 10.56988027 2.28218171 9.13059381 1.4375 7.6875 C0.72400391 6.48673828 0.72400391 6.48673828 -0.00390625 5.26171875 C-1 3 -1 3 0 0 Z " fill="#A24A32" transform="translate(31,93)"/>
<path d="M0 0 C0.66 0 1.32 0 2 0 C2.66 2.64 3.32 5.28 4 8 C2.02 8 0.04 8 -2 8 C-1.33333333 5.33333333 -0.66666667 2.66666667 0 0 Z " fill="#F5E5E5" transform="translate(112,78)"/>
<path d="M0 0 C0 0.33 0 0.66 0 1 C-0.969375 1.28875 -1.93875 1.5775 -2.9375 1.875 C-6.10664203 2.64214682 -6.10664203 2.64214682 -7 5 C-9.5625 5.625 -9.5625 5.625 -12 6 C-12 3 -12 3 -10.5 1.3125 C-6.8785826 -0.58874414 -4.06242173 -0.20312109 0 0 Z " fill="#BC2C2F" transform="translate(143,73)"/>
<path d="M0 0 C0.99 0 1.98 0 3 0 C3 2.97 3 5.94 3 9 C1.68 8.67 0.36 8.34 -1 8 C-0.67 5.36 -0.34 2.72 0 0 Z " fill="#CA6365" transform="translate(114,113)"/>
<path d="M0 0 C0 2.31 0 4.62 0 7 C-1.32 7 -2.64 7 -4 7 C-4 5.02 -4 3.04 -4 1 C-1 0 -1 0 0 0 Z " fill="#FAF3F3" transform="translate(91,102)"/>
<path d="M0 0 C1.32 0 2.64 0 4 0 C4 1.98 4 3.96 4 6 C2.35 6 0.7 6 -1 6 C-0.67 4.02 -0.34 2.04 0 0 Z " fill="#BA352A" transform="translate(65,78)"/>
<path d="M0 0 C0.99 0 1.98 0 3 0 C3 1.65 3 3.3 3 5 C3.99 5 4.98 5 6 5 C5.67 5.99 5.34 6.98 5 8 C5 7.34 5 6.68 5 6 C3.35 6.33 1.7 6.66 0 7 C0 4.69 0 2.38 0 0 Z " fill="#EFD5D5" transform="translate(126,103)"/>
<path d="M0 0 C2.86724686 0.57344937 3.8614515 0.8614515 6 3 C5.01 3.495 5.01 3.495 4 4 C3.67 4.99 3.34 5.98 3 7 C2.01 7 1.02 7 0 7 C0 4.69 0 2.38 0 0 Z " fill="#C4884B" transform="translate(37,105)"/>
<path d="M0 0 C2.4375 0.75 2.4375 0.75 5 2 C5.8125 4.125 5.8125 4.125 6 6 C4.35 6.33 2.7 6.66 1 7 C0.67 4.69 0.34 2.38 0 0 Z " fill="#DFB059" transform="translate(44,93)"/>
<path d="M0 0 C0.33 0 0.66 0 1 0 C1.1875 3.375 1.1875 3.375 1 7 C-2.08888522 9.05925681 -2.70935927 9.2390374 -6.1875 9.125 C-8.0746875 9.063125 -8.0746875 9.063125 -10 9 C-10.33 8.34 -10.66 7.68 -11 7 C-8.36 7 -5.72 7 -3 7 C-2.01 4.69 -1.02 2.38 0 0 Z " fill="#BB2A2C" transform="translate(100,86)"/>
<path d="M0 0 C2.97 0.495 2.97 0.495 6 1 C5.67 2.98 5.34 4.96 5 7 C3.68 7.33 2.36 7.66 1 8 C0.67 7.34 0.34 6.68 0 6 C0.66 6 1.32 6 2 6 C2 4.68 2 3.36 2 2 C1.34 1.34 0.68 0.68 0 0 Z " fill="#A16538" transform="translate(43,107)"/>
<path d="M0 0 C1.32 0.33 2.64 0.66 4 1 C4.12375 2.134375 4.2475 3.26875 4.375 4.4375 C4.684375 6.2009375 4.684375 6.2009375 5 8 C5.66 8.33 6.32 8.66 7 9 C5.35 9 3.7 9 2 9 C2.04125 8.2575 2.0825 7.515 2.125 6.75 C1.99601866 3.91241048 1.42948778 2.41226062 0 0 Z " fill="#C3484A" transform="translate(170,102)"/>
<path d="M0 0 C1.32 0 2.64 0 4 0 C4.66 2.64 5.32 5.28 6 8 C5.01 8.495 5.01 8.495 4 9 C2.68 6.03 1.36 3.06 0 0 Z " fill="#C24749" transform="translate(112,102)"/>
<path d="M0 0 C1.65 0 3.3 0 5 0 C5 1.65 5 3.3 5 5 C3.68 4.67 2.36 4.34 1 4 C0.67 2.68 0.34 1.36 0 0 Z " fill="#9C6A38" transform="translate(68,109)"/>
<path d="M0 0 C0.66 1.32 1.32 2.64 2 4 C0.625 7.75 0.625 7.75 -1 11 C-1.66 10.67 -2.32 10.34 -3 10 C-2.01 6.7 -1.02 3.4 0 0 Z " fill="#B54A33" transform="translate(68,88)"/>
<path d="M0 0 C0.66 0 1.32 0 2 0 C2 1.98 2 3.96 2 6 C-0.97 5.505 -0.97 5.505 -4 5 C-4 4.34 -4 3.68 -4 3 C-2.68 2.34 -1.36 1.68 0 1 C0 0.67 0 0.34 0 0 Z " fill="#C9A764" transform="translate(35,105)"/>
<path d="M0 0 C0.66 0 1.32 0 2 0 C2 2.31 2 4.62 2 7 C1.01 6.67 0.02 6.34 -1 6 C-1.042721 4.33388095 -1.04063832 2.66617115 -1 1 C-0.67 0.67 -0.34 0.34 0 0 Z " fill="#FAF2F2" transform="translate(128,114)"/>
<path d="M0 0 C1.32 0 2.64 0 4 0 C4 1.65 4 3.3 4 5 C2.68 5 1.36 5 0 5 C0 3.35 0 1.7 0 0 Z " fill="#DBC078" transform="translate(48,109)"/>
<path d="M0 0 C0.66 0.33 1.32 0.66 2 1 C1.67 2.65 1.34 4.3 1 6 C0.01 5.67 -0.98 5.34 -2 5 C-2.33 4.01 -2.66 3.02 -3 2 C-2.01 1.34 -1.02 0.68 0 0 Z " fill="#B97F47" transform="translate(62,103)"/>
<path d="M0 0 C2.475 0.99 2.475 0.99 5 2 C4.67 3.32 4.34 4.64 4 6 C2.68 5.34 1.36 4.68 0 4 C0 2.68 0 1.36 0 0 Z " fill="#E6C060" transform="translate(36,93)"/>
<path d="M0 0 C0 2.31 0 4.62 0 7 C-0.33 6.01 -0.66 5.02 -1 4 C-2.32 4 -3.64 4 -5 4 C-5 3.01 -5 2.02 -5 1 C-2 0 -2 0 0 0 Z " fill="#A7281F" transform="translate(57,92)"/>
<path d="M0 0 C0.99 0 1.98 0 3 0 C3 0.99 3 1.98 3 3 C3.66 3.33 4.32 3.66 5 4 C3.68 4 2.36 4 1 4 C0.67 4.99 0.34 5.98 0 7 C0 4.69 0 2.38 0 0 Z " fill="#E7C0C1" transform="translate(138,114)"/>
<path d="M0 0 C0.66 0 1.32 0 2 0 C2.33 2.31 2.66 4.62 3 7 C2.01 7 1.02 7 0 7 C0 4.69 0 2.38 0 0 Z " fill="#F4E3E4" transform="translate(106,114)"/>
<path d="M0 0 C1.65 0 3.3 0 5 0 C5 1.98 5 3.96 5 6 C3.2925002 4.71937515 1.62626404 3.38232443 0 2 C0 1.34 0 0.68 0 0 Z " fill="#BF3538" transform="translate(172,74)"/>
<path d="M0 0 C-3.6441774 2.4294516 -5.71241272 2.16179575 -10 2 C-6.80505194 -1.19494806 -4.22040044 -1.35655728 0 0 Z " fill="#E4BF7D" transform="translate(48,74)"/>
</svg>
