<?xml version="1.0" encoding="UTF-8"?>
<svg version="1.1" xmlns="http://www.w3.org/2000/svg" width="320" height="320">
<path d="M0 0 C3.62055216 0.76689878 5.18952683 1.85430722 7.75 4.5625 C8.36359375 5.20316406 8.9771875 5.84382812 9.609375 6.50390625 C10.06828125 6.99761719 10.5271875 7.49132812 11 8 C12.14926266 7.04578192 13.29430541 6.08647955 14.4375 5.125 C15.07558594 4.59132812 15.71367188 4.05765625 16.37109375 3.5078125 C18.10805004 2.0777243 18.10805004 2.0777243 19 0 C22.87511727 0.54984772 24.59576506 2.27555331 27.25 5.0625 C27.95640625 5.79597656 28.6628125 6.52945313 29.390625 7.28515625 C29.92171875 7.85105469 30.4528125 8.41695312 31 9 C29.4608199 12.66752005 27.24514548 14.98580573 24.4296875 17.765625 C23.08583984 19.09980469 23.08583984 19.09980469 21.71484375 20.4609375 C20.77769531 21.38132813 19.84054688 22.30171875 18.875 23.25 C17.92011363 24.19484856 16.96568141 25.14015633 16.01171875 26.0859375 C13.67890913 28.39518338 11.34155914 30.69963203 9 33 C9.33 33.99 9.66 34.98 10 36 C13.66752005 34.4608199 15.98580573 32.24514548 18.765625 29.4296875 C19.65507813 28.53378906 20.54453125 27.63789063 21.4609375 26.71484375 C22.38132813 25.77769531 23.30171875 24.84054688 24.25 23.875 C25.19484856 22.92011363 26.14015633 21.96568141 27.0859375 21.01171875 C29.39518338 18.67890913 31.69963203 16.34155914 34 14 C37.07456913 15.47512158 39.34751581 16.99823629 41.8125 19.375 C42.75029297 20.25285156 42.75029297 20.25285156 43.70703125 21.1484375 C45 23 45 23 44.88769531 24.79052734 C43.60644942 27.97954696 41.53444428 29.80043191 39.08984375 32.203125 C38.60294571 32.6857782 38.11604767 33.1684314 37.61439514 33.66571045 C36.0623455 35.2010085 34.50017864 36.72552925 32.9375 38.25 C31.88147643 39.2909722 30.82612962 40.3326314 29.77148438 41.375 C27.18878585 43.92467633 24.59691118 46.46479196 22 49 C17.66575105 46.91168005 14.60405363 44.18820128 11 41 C8.36 43.64 5.72 46.28 3 49 C-0.33976603 47.33011699 -2.20856281 46.13574365 -4.8125 43.625 C-5.43769531 43.03976563 -6.06289063 42.45453125 -6.70703125 41.8515625 C-8 40 -8 40 -7.87402344 38.19580078 C-6.63906555 35.09322781 -4.68604711 33.35036962 -2.30859375 31.015625 C-1.84389175 30.55516785 -1.37918976 30.09471069 -0.90040588 29.62030029 C0.58031819 28.15632189 2.07114519 26.70313959 3.5625 25.25 C4.57034664 24.25720551 5.57751633 23.2637233 6.58398438 22.26953125 C9.04819461 19.83833527 11.52157329 17.41671132 14 15 C13.01 14.01 12.02 13.02 11 12 C3.41 19.59 -4.18 27.18 -12 35 C-19 29 -19 29 -22 26 C-21.8006671 22.56458878 -20.24234968 20.89358177 -17.83203125 18.57421875 C-17.18556641 17.94193359 -16.53910156 17.30964844 -15.87304688 16.65820312 C-15.19306641 16.00787109 -14.51308594 15.35753906 -13.8125 14.6875 C-8.93885539 9.97551775 -4.33762588 5.21459534 0 0 Z " fill="#EF4D22" transform="translate(38,133)"/>
<path d="M0 0 C2.64 0 5.28 0 8 0 C8.66 0.66 9.32 1.32 10 2 C10.99 1.34 11.98 0.68 13 0 C17.71218117 -0.46349323 20.04345429 -0.46924884 24.3125 1.625 C29.27903065 6.01402708 30.3545997 10.54599701 31 17 C31.763125 16.195625 32.52625 15.39125 33.3125 14.5625 C37.59878391 10.90624818 42.58536645 11.10598037 48 11 C48 10.34 48 9.68 48 9 C43.03083364 9.51405169 38.70973649 10.23384882 34 12 C32.4375 9.1875 32.4375 9.1875 31 6 C32 3 32 3 34.875 1.3125 C39.79835561 -0.59593475 44.80578908 -0.71185722 50 0 C54.14953992 2.03837049 56.3270084 3.72299366 58 8 C58.22705078 10.56542969 58.22705078 10.56542969 58.1953125 13.421875 C58.18886719 14.44667969 58.18242187 15.47148437 58.17578125 16.52734375 C58.15902344 17.59082031 58.14226562 18.65429688 58.125 19.75 C58.11597656 20.82894531 58.10695312 21.90789062 58.09765625 23.01953125 C58.07411305 25.67991278 58.04122799 28.33984336 58 31 C55.03 31 52.06 31 49 31 C48.505 30.01 48.505 30.01 48 29 C47.01 29.66 46.02 30.32 45 31 C41.93421943 31.5454104 39.0670768 31.53808365 36 31 C32.71824682 28.47031526 31.30756223 26.92268669 30 23 C29.2575 23.94875 28.515 24.8975 27.75 25.875 C24.17994444 30.09144444 24.17994444 30.09144444 21 31 C14.02956522 31.51478261 14.02956522 31.51478261 11 30 C10.67 33.3 10.34 36.6 10 40 C6.7 40 3.4 40 0 40 C0 26.8 0 13.6 0 0 Z M10.125 11.125 C8.76375744 14.60373098 8.97218315 16.44217244 10 20 C11.89755144 22.34973818 11.89755144 22.34973818 15.125 22.125 C16.548125 22.063125 16.548125 22.063125 18 22 C19.91903365 19.1778917 19.99110212 17.87098068 19.75 14.375 C19.30518815 10.94727116 19.30518815 10.94727116 17 9 C13.52514756 8.37630854 12.50346597 8.42940523 10.125 11.125 Z M40 20 C40.33 20.99 40.66 21.98 41 23 C43.41645782 23.16687448 43.41645782 23.16687448 46 23 C46.66 22.34 47.32 21.68 48 21 C48 20.01 48 19.02 48 18 C45.11604263 18 42.70522185 19.05905327 40 20 Z " fill="#000000" transform="translate(94,142)"/>
<path d="M0 0 C4.27104798 3.6239195 5.36500408 6.20807789 6.0625 11.75 C6.19598589 14.68912302 6.20254709 17.62079298 6.1875 20.5625 C6.19330078 21.72555664 6.19330078 21.72555664 6.19921875 22.91210938 C6.18922546 28.62327454 6.18922546 28.62327454 5.0625 29.75 C-2.23161765 29.98529412 -2.23161765 29.98529412 -5.9375 28.75 C-6.5975 29.08 -7.2575 29.41 -7.9375 29.75 C-15.02708838 30.3311138 -15.02708838 30.3311138 -18.875 27.875 C-21.5285687 25.14102013 -21.88786258 24.27615669 -22.25 20.4375 C-21.87969853 16.06794268 -21.1802072 14.66012185 -17.9375 11.75 C-13.50691859 10.02699612 -9.66981713 9.51915526 -4.9375 9.75 C-4.9375 9.09 -4.9375 8.43 -4.9375 7.75 C-9.90666636 8.26405169 -14.22776351 8.98384882 -18.9375 10.75 C-20.43571059 7.37902617 -20.9375 5.54557881 -20.9375 1.75 C-14.05139754 -1.31048998 -7.20922078 -3.06775352 0 0 Z M-5.9375 16.75 C-7.9175 17.41 -9.8975 18.07 -11.9375 18.75 C-11.9375 19.74 -11.9375 20.73 -11.9375 21.75 C-8.4725 21.255 -8.4725 21.255 -4.9375 20.75 C-5.2675 19.43 -5.5975 18.11 -5.9375 16.75 Z " fill="#000000" transform="translate(220.9375,143.25)"/>
<path d="M0 0 C3.9323173 2.65202795 6.18648186 5.30944559 7.6875 9.8125 C8.20603818 14.7513636 8.23949525 18.66604834 6.0625 23.1875 C2.71311758 26.88944899 0.17354424 29.44941157 -4.93359375 30.1953125 C-10.88594491 30.43760631 -14.72568667 29.940632 -19.3125 25.8125 C-23.09066077 21.51321361 -23.60839966 17.64157684 -23.52734375 12.09375 C-23.08659613 7.41381167 -21.19594526 4.62968686 -17.8125 1.5 C-12.33257876 -2.19894684 -6.09665282 -2.18559252 0 0 Z M-12.1875 9.9375 C-13.54874256 13.41623098 -13.34031685 15.25467244 -12.3125 18.8125 C-10.48778109 21.03146136 -10.48778109 21.03146136 -7.875 21.1875 C-5.24159233 21.02992228 -5.24159233 21.02992228 -3.4375 19.25 C-1.83970037 15.78810081 -2.43498923 13.45754476 -3.3125 9.8125 C-5.14036272 7.60392762 -5.14036272 7.60392762 -7.75 7.375 C-10.49143098 7.56711335 -10.49143098 7.56711335 -12.1875 9.9375 Z " fill="#000000" transform="translate(286.3125,143.1875)"/>
<path d="M0 0 C3.90967934 2.05466127 6.26687697 4.19844242 7.8984375 8.27734375 C9.41371859 14.45684943 9.18818337 19.72746713 5.8984375 25.27734375 C1.10858609 29.94744887 -3.06586391 30.63405629 -9.52734375 30.55859375 C-14.49372768 30.01598428 -17.75817744 27.88940582 -20.9765625 24.02734375 C-23.53528469 17.77268951 -23.69368268 12.5219969 -21.1015625 6.27734375 C-15.43063229 -0.4382315 -8.57079574 -2.94720671 0 0 Z M-10.1015625 8.27734375 C-12.55967875 11.96451813 -12.41274414 13.92080079 -12.1015625 18.27734375 C-11.1115625 19.76234375 -11.1115625 19.76234375 -10.1015625 21.27734375 C-7.1015625 21.77734375 -7.1015625 21.77734375 -4.1015625 21.27734375 C-1.64344625 17.59016937 -1.79038086 15.63388671 -2.1015625 11.27734375 C-2.7615625 10.28734375 -3.4215625 9.29734375 -4.1015625 8.27734375 C-7.1015625 7.77734375 -7.1015625 7.77734375 -10.1015625 8.27734375 Z " fill="#000000" transform="translate(190.1015625,142.72265625)"/>
<path d="M0 0 C0 1.98 0 3.96 0 6 C3.3 6 6.6 6 10 6 C10 8.97 10 11.94 10 15 C6.7 15 3.4 15 0 15 C0 19.29 0 23.58 0 28 C2.97 27.67 5.94 27.34 9 27 C10.25664978 29.90600261 11 31.79604584 11 35 C6.24241898 37.53737655 1.25868356 37.72533566 -4 37 C-6.93423195 35.20353146 -8.47205355 34.0558929 -10 31 C-10.08573394 28.74879258 -10.10712188 26.49500697 -10.09765625 24.2421875 C-10.0962413 23.57913605 -10.09482635 22.91608459 -10.09336853 22.23294067 C-10.08776754 20.11358137 -10.075215 17.99432741 -10.0625 15.875 C-10.05748512 14.43880361 -10.05292219 13.00260556 -10.04882812 11.56640625 C-10.03779782 8.04423655 -10.02053259 4.52212855 -10 1 C-6.58389775 0.05685873 -3.54865136 -0.08065117 0 0 Z " fill="#000000" transform="translate(253,136)"/>
<path d="M0 0 C3.3 0 6.6 0 10 0 C10 13.2 10 26.4 10 40 C6.7 40 3.4 40 0 40 C0 26.8 0 13.6 0 0 Z " fill="#000000" transform="translate(230,133)"/>
<path d="M0 0 C3.3 0 6.6 0 10 0 C10 13.2 10 26.4 10 40 C6.7 40 3.4 40 0 40 C0 26.8 0 13.6 0 0 Z " fill="#000000" transform="translate(155,133)"/>
<path d="M0 0 C4.09338652 -0.04939115 8.18665798 -0.08571501 12.28027344 -0.10986328 C13.67320781 -0.11992877 15.06612102 -0.13358234 16.45898438 -0.15087891 C18.4595436 -0.1751022 20.46025615 -0.18540814 22.4609375 -0.1953125 C24.26763916 -0.21102295 24.26763916 -0.21102295 26.11083984 -0.22705078 C29 0 29 0 31 2 C31.1875 4.5625 31.1875 4.5625 31 7 C30 8 30 8 26.5625 8.1875 C23 8 23 8 21 6 C20.67 6.66 20.34 7.32 20 8 C16.7 8 13.4 8 10 8 C9.34 6.35 8.68 4.7 8 3 C7.34 3 6.68 3 6 3 C6 4.65 6 6.3 6 8 C4.68 8 3.36 8 2 8 C2 6.35 2 4.7 2 3 C1.34 3 0.68 3 0 3 C0 2.01 0 1.02 0 0 Z M26 3 C25.67 3.66 25.34 4.32 25 5 C25.66 5 26.32 5 27 5 C26.67 4.34 26.34 3.68 26 3 Z " fill="#000000" transform="translate(235,178)"/>
<path d="M0 0 C5.61 0 11.22 0 17 0 C18 6 18 6 17 8 C11.39 8 5.78 8 0 8 C0 5.36 0 2.72 0 0 Z M8 2 C8 3.32 8 4.64 8 6 C8.66 5.34 9.32 4.68 10 4 C9.34 3.34 8.68 2.68 8 2 Z " fill="#000000" transform="translate(276,178)"/>
<path d="M0 0 C3 0.25 3 0.25 5 2.25 C5.3125 5.75 5.3125 5.75 5 9.25 C2 11.25 2 11.25 -0.5625 11 C-3 10.25 -3 10.25 -5 8.25 C-5.25 5.25 -5.25 5.25 -5 2.25 C-3 0.25 -3 0.25 0 0 Z M-3 4.25 C-2 7.25 -2 7.25 -2 7.25 Z " fill="#000000" transform="translate(299,139.75)"/>
<path d="M0 0 C2.97 0 5.94 0 9 0 C9 2.64 9 5.28 9 8 C6.03 8 3.06 8 0 8 C0 5.36 0 2.72 0 0 Z " fill="#000000" transform="translate(217,178)"/>
<path d="M0 0 C2.33294775 -0.04241723 4.66702567 -0.04092937 7 0 C8 1 8 1 8.0625 4.5625 C8.041875 5.696875 8.02125 6.83125 8 8 C5.36 8 2.72 8 0 8 C0 5.36 0 2.72 0 0 Z " fill="#000000" transform="translate(267,178)"/>
<path d="M0 0 C2.31 0 4.62 0 7 0 C7.38063221 2.3260857 7.71269945 4.66055264 8 7 C7 8 7 8 3.4375 8.0625 C2.303125 8.041875 1.16875 8.02125 0 8 C0 5.36 0 2.72 0 0 Z " fill="#000000" transform="translate(227,178)"/>
</svg>
